<?xml version="1.0" encoding="UTF-8" standalone="no"?>
<!-- Created with Inkscape (http://www.inkscape.org/) -->

<svg
   xmlns:dc="http://purl.org/dc/elements/1.1/"
   xmlns:cc="http://creativecommons.org/ns#"
   xmlns:rdf="http://www.w3.org/1999/02/22-rdf-syntax-ns#"
   xmlns:svg="http://www.w3.org/2000/svg"
   xmlns="http://www.w3.org/2000/svg"
   xmlns:sodipodi="http://sodipodi.sourceforge.net/DTD/sodipodi-0.dtd"
   xmlns:inkscape="http://www.inkscape.org/namespaces/inkscape"
   width="252.63927mm"
   height="229.4315mm"
   viewBox="0 0 252.63927 229.4315"
   version="1.1"
   id="svg5785"
   inkscape:version="0.92.2 (5c3e80d, 2017-08-06)"
   sodipodi:docname="CRAP-logo.svg">
  <title
     id="title6441">Consortium for Research About Profanity logo</title>
  <defs
     id="defs5779">
    <inkscape:path-effect
       effect="bspline"
       id="path-effect6399"
       is_visible="true"
       weight="33.333333"
       steps="2"
       helper_size="0"
       apply_no_weight="true"
       apply_with_weight="true"
       only_selected="false" />
  </defs>
  <sodipodi:namedview
     id="base"
     pagecolor="#ffffff"
     bordercolor="#666666"
     borderopacity="1.0"
     inkscape:pageopacity="0.0"
     inkscape:pageshadow="2"
     inkscape:zoom="0.7"
     inkscape:cx="394.16325"
     inkscape:cy="472.2428"
     inkscape:document-units="mm"
     inkscape:current-layer="g6405"
     showgrid="false"
     inkscape:window-width="1920"
     inkscape:window-height="1057"
     inkscape:window-x="-8"
     inkscape:window-y="1192"
     inkscape:window-maximized="1" />
  <metadata
     id="metadata5782">
    <rdf:RDF>
      <cc:Work
         rdf:about="">
        <dc:format>image/svg+xml</dc:format>
        <dc:type
           rdf:resource="http://purl.org/dc/dcmitype/StillImage" />
        <dc:title>Consortium for Research About Profanity logo</dc:title>
      </cc:Work>
    </rdf:RDF>
  </metadata>
  <g
     inkscape:label="Layer 1"
     inkscape:groupmode="layer"
     id="layer1"
     transform="translate(13.191443,-51.202173)">
    <circle
       style="fill:none;fill-opacity:1;stroke:#000000;stroke-width:5.06500006;stroke-miterlimit:4;stroke-dasharray:none"
       id="path6330"
       cx="62.668434"
       cy="127.06205"
       r="73.327377" />
    <circle
       style="fill:none;fill-opacity:1;stroke:#000000;stroke-width:5.06500006;stroke-miterlimit:4;stroke-dasharray:none"
       id="path6330-9"
       cx="163.58795"
       cy="127.06205"
       r="73.327377" />
    <circle
       style="fill:none;fill-opacity:1;stroke:#000000;stroke-width:5.06500006;stroke-miterlimit:4;stroke-dasharray:none"
       id="path6330-5"
       cx="112.6369"
       cy="204.7738"
       r="73.327377" />
    <g
       id="g6405"
       transform="translate(1.889881,-0.37797619)">
      <circle
         r="25.10014"
         cy="110.54439"
         cx="39.725227"
         id="path6330-0"
         style="fill:none;fill-opacity:1;stroke:#000000;stroke-width:4.434;stroke-miterlimit:4;stroke-dasharray:none" />
      <ellipse
         ry="4.2049851"
         rx="2.126116"
         cy="103.59908"
         cx="30.512054"
         id="path6368"
         style="fill:none;fill-opacity:1;stroke:#000000;stroke-width:5.06500006;stroke-miterlimit:4;stroke-dasharray:none" />
      <ellipse
         ry="4.2049851"
         rx="2.126116"
         cy="103.74081"
         cx="47.662724"
         id="path6368-4"
         style="fill:none;fill-opacity:1;stroke:#000000;stroke-width:5.06500006;stroke-miterlimit:4;stroke-dasharray:none" />
      <path
         inkscape:original-d="m 20.221336,113.74804 c 6.06843,6.37613 12.136427,12.75266 18.203994,19.12964 7.354037,-6.42842 14.707618,-12.85636 22.060777,-19.2839 -6.632811,2.31349 -13.266886,4.73054 -19.90098,7.09648 -6.788028,-2.31469 -13.575431,-4.62858 -20.363791,-6.94222 z"
         inkscape:path-effect="#path-effect6399"
         inkscape:connector-curvature="0"
         id="path6397"
         d="m 26.649425,118.09339 c -0.360094,2.03119 5.707895,8.40773 12.418935,8.38182 6.711039,-0.0259 14.064612,-6.45386 14.432952,-8.48797 0.36834,-2.0341 -6.281999,0.33734 -12.993195,0.3631 -6.711196,0.0258 -13.498598,-2.28814 -13.858692,-0.25695 z"
         style="fill:#000000;stroke:#000000;stroke-width:0.43195927px;stroke-linecap:butt;stroke-linejoin:miter;stroke-opacity:1" />
      <path
         style="fill:#000000;fill-opacity:1;stroke:#000000;stroke-width:23.94060707;stroke-miterlimit:4;stroke-dasharray:none"
         d="m 470.62358,465.89363 c -23.10233,-23.77585 -44.09627,-59.85165 -56.09598,-96.39485 -6.0549,-18.43922 -11.03389,-41.48145 -9.70925,-44.93339 0.98881,-2.5768 23.94239,-7.64392 43.93359,-9.69858 28.10705,-2.88878 60.79903,-0.77161 88.39208,5.72439 l 13.39208,3.15279 -0.92776,8.05352 c -1.25156,10.86442 -8.51669,37.82834 -13.72524,50.9401 -12.16906,30.63384 -29.32388,58.45329 -51.13646,82.92646 l -6.86354,7.70072 z"
         id="path6439"
         inkscape:connector-curvature="0"
         transform="matrix(0.26458333,0,0,0.26458333,-15.081324,51.580149)"
         inkscape:export-filename="C:\Users\MJ\path6439.png"
         inkscape:export-xdpi="280.41757"
         inkscape:export-ydpi="280.41757" />
    </g>
    <g
       transform="matrix(0.11063677,0,0,0.11063677,142.70075,54.112803)"
       inkscape:label="Layer 1"
       id="layer1-7">
      <path
         d="m 333.27,244.48 c -9.0304,0 -16.342,10.519 -16.342,19.55 v 7.7384 c 0,6.3886 3.685,11.885 9.0111,14.56 -0.0798,1.0586 -0.15314,2.1275 -0.15314,3.2074 v 153.8 c -2.4178,4.5548 -4.7734,9.2986 -7.3312,14 l -132.17,239.08 c -21.284,39.127 19.219,72.395 43.071,72.395 h 330.72 c 23.851,0 64.789,-32.472 43.071,-72.395 l -132.16,-239.08 c -2.5578,-4.7019 -4.9134,-9.4456 -7.3312,-14 v -153.8 c 0,-1.0798 -0.0733,-2.1487 -0.15314,-3.2074 5.3262,-2.6758 9.0111,-8.1719 9.0111,-14.56 V 264.03 c 0,-9.0306 -7.2608,-19.55 -16.291,-19.55 z"
         inkscape:connector-curvature="0"
         style="fill:#000000;stroke-width:25.79999924"
         sodipodi:nodetypes="ssscscccsscccscssss"
         id="rect2985" />
      <g
         transform="matrix(1.6291,0,0,1.6291,-1390.6,-814.74)"
         style="fill:#ffffff"
         id="g3213">
        <path
           d="m 1080.3,768.8 h 31.307 c 12.456,0 16.531,11.607 22.483,22.611 l 70.701,130.71 c 14.28,26.399 -10.028,38.012 -22.484,38.012 h -172.71 c -12.456,0 -35.208,-14.489 -22.483,-38.012 l 70.701,-130.71 c 5.9522,-11.004 10.028,-22.611 22.483,-22.611 z"
           inkscape:connector-curvature="0"
           style="fill:#ffffff;stroke-width:25.79999924"
           sodipodi:nodetypes="sssssssss"
           id="path3201" />
        <rect
           x="1063.8"
           y="670.48999"
           width="64.230003"
           height="117.7"
           ry="0"
           style="fill:#ffffff;stroke-width:25.79999924"
           id="rect3203" />
        <rect
           x="-671.96002"
           y="1058.1"
           width="13.263"
           height="75.528999"
           ry="4.3000002"
           transform="rotate(-90)"
           style="fill:#ffffff;stroke-width:25.79999924"
           id="rect3205" />
      </g>
      <path
         inkscape:connector-curvature="0"
         style="fill:#000000;stroke-width:25.79999924"
         sodipodi:nodetypes="csssscc"
         d="m 461.99,505.91 91.927,174.75 c 20.125,38.256 -14.442,54.746 -32.381,54.746 h -248.74 c -17.939,0 -50.781,-20.907 -32.381,-54.746 l 90.127,-165.75 c 79.68,31.256 108.66,-55.62 131.45,-8.999 z"
         id="path3201-1" />
      <circle
         transform="matrix(3.5487,0,0,3.5487,-3615.7,-2224.5)"
         style="fill:#ffffff"
         id="path3252"
         cx="1124.9349"
         cy="805.20874"
         r="8.3682728" />
      <circle
         transform="matrix(2.097,0,0,2.097,-2012.7,-1091.1)"
         style="fill:#ffffff"
         id="path3254"
         cx="1124.9349"
         cy="805.20874"
         r="8.3682728" />
      <circle
         transform="matrix(1.2367,0,0,1.2367,-968.45,-432.55)"
         style="fill:#ffffff"
         id="path3256"
         cx="1124.9349"
         cy="805.20874"
         r="8.3682728" />
      <rect
         x="413.88"
         y="281.54001"
         width="15.08"
         height="164.10001"
         ry="7.5398998"
         style="fill:#000000"
         id="rect3264" />
    </g>
    <text
       xml:space="preserve"
       style="font-style:normal;font-variant:normal;font-weight:normal;font-stretch:normal;font-size:37.09884262px;line-height:1.25;font-family:'Times New Roman';-inkscape-font-specification:'Times New Roman, Normal';font-variant-ligatures:normal;font-variant-caps:normal;font-variant-numeric:normal;text-align:center;letter-spacing:0px;word-spacing:0px;writing-mode:lr-tb;text-anchor:middle;fill:#000000;fill-opacity:1;stroke:none;stroke-width:1.3912065"
       x="113.10995"
       y="238.95078"
       id="text6437"><tspan
         sodipodi:role="line"
         id="tspan6435"
         x="113.10995"
         y="238.95078"
         style="font-style:normal;font-variant:normal;font-weight:normal;font-stretch:normal;font-size:37.09866333px;font-family:'Berlin Sans FB';-inkscape-font-specification:'Berlin Sans FB, Normal';font-variant-ligatures:normal;font-variant-caps:normal;font-variant-numeric:normal;font-feature-settings:normal;text-align:center;writing-mode:lr-tb;text-anchor:middle;stroke-width:1.3912065">$#@%!</tspan></text>
  </g>
</svg>
